<svg width="24" height="24" viewBox="0 0 24 24" fill="none" xmlns="http://www.w3.org/2000/svg">
<path fill-rule="evenodd" clip-rule="evenodd" d="M8.46249 5.33332C7.97784 5.85337 7.97784 6.69327 8.46249 7.21332L12.8875 12L8.46249 16.72C7.97784 17.24 7.97784 18.0799 8.46249 18.6C8.6972 18.8524 9.01669 18.9944 9.34999 18.9944C9.68329 18.9944 10.0028 18.8524 10.2375 18.6L15.5375 12.9467C15.7741 12.6963 15.9072 12.3555 15.9072 12C15.9072 11.6445 15.7741 11.3037 15.5375 11.0533L10.2375 5.33332C10.0028 5.0809 9.68329 4.93892 9.34999 4.93892C9.01669 4.93892 8.6972 5.0809 8.46249 5.33332Z" fill="white"/>
</svg>
